<svg xmlns="http://www.w3.org/2000/svg" viewBox="0 0 4324.63 2570.95"><defs><style>.cls-1{fill:#f9b233;}</style></defs><g id="Layer_62" data-name="Layer 62"><path class="cls-1" d="M1962.78,17.34l7.84,27.48a2.53,2.53,0,0,0,4.18,1.11c11.85-11,28.42-13.94,44.08-12.84a2.52,2.52,0,0,0,2.15-3.77c-3.88-6-8.9-17-4.32-24.19,4.89-7.66,16.48-2.91,22.68-.93,3.86,1.24,16.6,4.16,18.69,8.3,2,3.92-1.82,10.53-2.53,14.62-3.24,18.56,2.5,36.26,13.13,51.39l1.5-3.67-57.84,12.75c-2.59.57-2.16,4,0,4.82,26.12,9.34,53.92,35.82,36,64.88a2.52,2.52,0,0,0,2.16,3.76l92.32,7.88a2.42,2.42,0,0,0,2.16-1.24c12.25-25.69-14.33-45.36-36.55-50.91a2.54,2.54,0,0,0-3.08,3.07l14.33,89.3,3.08-3.07a167.17,167.17,0,0,0-68.58-7.27,2.54,2.54,0,0,0-2.41,3.16l15,55.58a2.53,2.53,0,0,0,3.08,1.75,194.45,194.45,0,0,1,94.28-5.13l.66-4.91c-19.45,1.52-47.91,21.16-31.52,43.09,10.59,14.18,20.28,6.33,34.59,2.87a214,214,0,0,1,79.27-3.53c1.49.21,3.26-.61,3.16-2.41-2.73-50.17,5.22-99.5,22.51-146.62l-3.67,1.5c26.84,16.6,58.88,22.33,90.1,20.49,2.36-.14,3.55-3.4,1.26-4.66-12.93-7.14-26.13-1.18-34.45,10.18-12,16.38-5.69,38-4.11,56.74q7.29,86.54,14.59,173.09l4.27-1.77c-11.32-12,.87-24.5,11.91-30.73,12.73-7.19,27.16-9.16,41.57-8.09,13.68,1,27,4.64,39.76,9.55,6.44,2.48,12.75,5.32,19,8.31,8.64,4.15,13.07,6.2,15.59,15.93,7.37,28.42,11,58.41,16.42,87.27q8.25,43.63,16.53,87.26l7.59,39.89q2.14,11.22,4.28,22.43c.57,3,5.3,17.67,2.77,20.06-2.74,2.6-17.22.11-20.3-.42a113.78,113.78,0,0,1-13.51-3.32c-10.77-3.24-21.15-7.59-31.81-11.15-14.23-4.77-30.44-9-44.95-2.88-15.18,6.37-18.13,20-13.18,34.65,4,11.79,10.82,22.47,15.29,34.11a186.93,186.93,0,0,1,11.41,46.45c3.35,30.7-1.61,61.12-13,89.71a2.51,2.51,0,0,0,2.41,3.17c49.49-3.34,104.45-6,150.7,15.09,17.6,8,34.13,22,38.09,41.86,4.53,22.71-11.46,38.7-31.63,45.56a2.54,2.54,0,0,0-1.5,3.67c15.89,31.09,46.94,51.54,78.53,64.26,43,17.3,88.8,19.67,134.47,14.9,48.68-5.08,96.92-16.44,146.13-13.88,38.83,2,96.36,11.45,106.17,57,5.39,25,3.57,52.87,4.61,78.38l3.36,81.78c.95,23.22,2.56,49.77-23.73,59.16-15.94,5.7-35.17,4.93-51.05-.61-17.71-6.17-31.49-22.5-14.52-38.57,15.18-14.37,41-19,60.6-12.93,45.92,14.34,33.17,66.33,31.13,102.49-6.48,115.06,14.2,230,56.75,336.86a2.6,2.6,0,0,0,2.41,1.84l190-4.18-2.41-3.16a312.74,312.74,0,0,0-11.5,144.23l2.41-3.17c-29.29-2.37-59.28-4.29-88.41.71-22,3.78-47.53,12.93-58.77,33.86-9.58,17.84-3.28,38.28,4.37,55.56,10.54,23.78,27.27,46.43,32,72.42,4.87,27-12.69,52-34,66.81-25.11,17.47-59.1,24.93-89.07,18.12-22.23-5.06-48.3-19.48-55.9-42.59-10-30.5,38.16-60.87,57.73-32.9,5.19,7.4,6.7,17.74,8.94,26.27q3.8,14.46,7.22,29,7.38,31.39,12.92,63.16a1102.27,1102.27,0,0,1,14.74,131.29l3.76-2.15c-81.83-39-176.88-41.25-265.83-39.23-107.41,2.44-214.91,9.64-322,17.91q-93.23,7.2-186.26,16.62c-2.63.27-3.61,4.2-.67,4.91,36,8.74,71.68,27.51,92.08,59.51,17.83,28,18.33,61.37-2.27,88-1.3,1.68-.19,5.27,2.43,4.18,51.95-21.52,108.64-30.49,164.73-29.35a415.31,415.31,0,0,1,84.52,10.18c27.25,6.27,53.87,16.39,82,18,20.65,1.18,46.39-2.81,60.34-19.95,9.4-11.56,5.11-24.9-7.66-31.5-28.76-14.89-76,.74-81.33,34.75-1.88,11.93.84,24.07,3.83,35.57,4.51,17.3,9.5,34.49,14.25,51.72l29.1,105.56c.85,3.1,5.68,1.78,4.82-1.33q-20.84-75.57-41.67-151.14c-6.29-23-12-51.2,12.21-66,14.35-8.78,35.88-12.12,51.95-6.59,13.19,4.53,19.75,16.87,8.67,27.92-8.51,8.5-20.94,13.19-32.62,15.17-26.3,4.44-53.51-3.91-78.63-10.83-43-11.84-86.86-17.74-131.54-16.48-49.31,1.39-98.64,10.54-144.3,29.45l2.43,4.18c20.55-26.58,22.42-59.85,6-89.12-20.16-36-59.1-57.31-98-66.77l-.66,4.91q159.8-16.15,320.17-25.79c99.25-5.95,200.21-14.29,299.55-6.42,52,4.13,104.44,13.61,151.86,36.22,1.59.76,3.87-.12,3.76-2.16a1114.21,1114.21,0,0,0-13.67-125.31q-5.33-31.77-12.49-63.19c-4.31-19-7.51-40.47-15.45-58.29-10.82-24.28-40.12-21.54-58.21-6.71-14.56,11.94-16.82,30.14-7.85,46.28,27.55,49.57,101.81,48.64,144.35,22,20.35-12.77,38.13-33.16,41.13-57.76,3.09-25.33-12.24-49.86-23.39-71.42-7.67-14.83-16.3-30.58-18-47.46-2-19.69,9.84-34.81,26.68-43.76,35.55-18.88,81.54-14.2,120.17-11.07,1.78.15,2.63-1.7,2.41-3.16-7.4-47.73-3.2-95.6,11.5-141.57a2.53,2.53,0,0,0-2.41-3.17l-105,2.31-47.5,1-22.51.5c-4.86.1-10.6,1.71-14.41-2.4-2.17-2.35-4.15-10.71-5.27-13.72A792.35,792.35,0,0,1,3048,1461.08a764.26,764.26,0,0,1-4.09-94.23c.51-27.25,5.73-55,4.43-82.13-.79-16.68-5.94-33.07-19.41-43.8-16.19-12.9-38.64-15-58.08-9.47-14.35,4.11-33.57,14.13-35.77,30.79-1.81,13.73,10,23.3,21.33,28.21,30.38,13.21,80.71,8.86,86.24-31,1.82-13.14,0-27.12-.51-40.29l-2.13-52c-1.27-30.81-.09-62.91-4.56-93.44-7.06-48.25-58.59-62-100.29-65.89-70.17-6.64-138.46,17.48-208.49,15.3-57.43-1.79-130-24-158.07-79l-1.5,3.67c17.45-5.94,33.25-17.75,35.76-37.19,2.45-19-8.39-37-22.8-48.46-19.83-15.83-47.15-22.14-71.73-25.53-33-4.56-66.56-3.39-99.71-1.15l2.41,3.16c10.95-27.58,16.13-57,13.56-86.7-2.6-30.11-14.21-54.68-25.62-82-2.74-6.55-5.12-13.5-3.15-20.55,2.78-9.91,13-14.19,22.65-14.93,12.19-.95,24.44,3.33,35.75,7.36,21.5,7.63,43.36,17.41,66.6,12.46a2.54,2.54,0,0,0,1.74-3.07q-13.33-69.79-26.56-139.61-6.6-34.91-13.18-69.81-3.29-17.44-6.56-34.91c-1.34-7.13-1.27-20.48-5.58-26.23-4-5.33-18.66-9.42-24.76-12.1a198.91,198.91,0,0,0-24.91-9.21c-16.82-4.83-35.36-7.29-52.6-3.18-18.47,4.4-51.25,24.38-31.11,45.66,1.41,1.49,4.45.42,4.26-1.77L2330.4,267.63l-5.58-66.18c-.78-9.29-1.47-17.25,3.44-25.6,6.11-10.39,18-18,29.75-11.55l1.26-4.65c-30.39,1.79-61.44-3.64-87.58-19.81a2.53,2.53,0,0,0-3.67,1.49c-17.44,47.53-25.44,97.36-22.69,147.95l3.17-2.41c-28.74-3.95-58.06-2.84-86.17,4.61-6.49,1.72-13.48,5.73-19.81,2.66-5.54-2.68-8.92-9.89-8.57-15.79.93-15.48,17.51-23.05,30.88-24.09,2.62-.21,3.62-4.35.67-4.91a204,204,0,0,0-69.71-1.32c-5.73.9-11.41,2.05-17,3.49-8.83,2.27-8.7-1.12-10.88-9.19l-11.26-41.69-2.41,3.17a163.85,163.85,0,0,1,67.25,7.09c2,.65,3.35-1.33,3.07-3.07l-14.33-89.31-3.07,3.08c10.83,2.7,21.5,7.41,28.91,16.07,3.75,4.39,6.71,10,7.18,15.82.72,9.07-4.45,10.09-12.52,9.41l-80.17-6.85,2.16,3.76c19.7-32-9.83-61.78-39-72.22v4.82l57.84-12.75A2.51,2.51,0,0,0,2073,76c-13.56-19.3-17.08-40.86-7.89-62.85a2.53,2.53,0,0,0-1.15-2.83c-14.11-9-29.6-13.55-46.11-15.61a2.43,2.43,0,0,0-2.16,1.23c-7,12.18-6.55,24.15,1,35.92l2.16-3.76c-17.07-1.19-34.77,2.39-47.62,14.3l4.18,1.1L1967.6,16c-.88-3.09-5.7-1.78-4.82,1.33Z"/><path class="cls-1" d="M1725.59,2571l16.5-358.75,4.7-102.25a2.52,2.52,0,0,0-3.16-2.41c-82.49,20.33-164.88,41.18-247.51,60.92-41,9.8-82.54,18.56-124.72,21.39-42,2.81-84.12-.63-125.57-7.38-46.65-7.59-92.51-19.17-138.29-30.75l1.84,2.41a499.45,499.45,0,0,1,11-137.18,2.51,2.51,0,0,0-4.57-1.93c-34.64,48.44-106.06,50.63-142.51,3l-2.16,3.76c27.79,3.26,36.44-36.19,38.88-56.4,2.61-21.66,1.09-90.94,39.81-80.2,9.56,2.65,17.81,9.51,26.48,14.11a139,139,0,0,0,25.79,10.62c16,4.71,33.07,6.24,49.43,2.69,29.83-6.46,50.24-29,58.17-57.8,7.6-27.54,5.35-63.24-18.64-82.29-1.3-1-3.84-1-4.18,1.1q-7.37,45-14.75,90l4.18-1.1c-60-50-137.63-76.59-215.81-66.58l2.5,2.5,1.7-154.24a2.51,2.51,0,0,0-2.5-2.5,1781.23,1781.23,0,0,1-256.3,14.88c-43.33-.63-86.82-2.48-129.95-6.7-16.2-1.58-33.32-6.43-37.18-24.5-2.85-13.33.21-27.17-.25-40.64-.28-8.34-2-18.09-10.56-21.74-12.58-5.34-25.07,8.52-32.58,16.78-20.17,22.2-31.94,50.94-38.41,79.91-7.14,32-8.32,65.33-5.09,97.91,3.87,38.87,15.48,83.21.22,121-6.24,15.43-18.73,29.85-34.66,35.63-6.77,2.45-14.31,3.23-21.2.75-3.47-1.25-7.78-3.48-10-6.44-3.11-4-2-9.68-2.26-14.66-1.86-38.13-15.32-75.91-40.29-105a2.55,2.55,0,0,0-3-.39c-20.6,8.85-25.06,34.1-26.24,54.1-1.74,29.65,3.8,59.19,2.66,88.9-1.19,31.3-7.22,67.28-29.5,91-17.55,18.67-48.07,30.68-71.16,14.49-3.37-2.37-6.64-5.06-8.3-8.8-2-4.53-2.18-10.55-3-15.43l-5.49-31.9q-5.64-32.73-11.27-65.47a2.53,2.53,0,0,0-3.07-1.75l-91.47,21L97,1937l-6.27-167.13-3.14-83.56-.78-20.89c-.13-3.24,1-9.2-.93-12-2.25-3.23-10.08-6.09-13.37-8l-18.3-10.62a2.59,2.59,0,0,0-3,.39c-14.55,12.62-31.88,21-51.13,23-3.17.34-3.2,5.34,0,5,20.67-2.21,39-10.9,54.67-24.47l-3,.39,16.89,9.8c5.25,3,11.77,5,13,11.24,1.2,6,.49,13.06.72,19.15l.78,20.89L86,1778.59,92,1937a2.53,2.53,0,0,0,3.16,2.41l91.46-21-3.07-1.74q5.2,30.21,10.4,60.44l5.2,30.22c1.33,7.74,1.14,19,5.44,25.47,13,19.63,42.62,19.56,61.63,11.07,60.64-27.11,58.5-110.81,54-166-2.1-25.7-6.32-72.49,23-85.08l-3-.39c25,29.18,38.06,67.7,39,105.91.18,7.63-.84,10,5,15.16a32.11,32.11,0,0,0,14.25,7.31c10.69,2.32,21.82-1.14,30.87-6.85,26.92-17,34.69-48.58,34.91-78.58.29-38.61-9.4-76.48-8.94-115.16.41-34.34,5.87-69.68,20.44-101,6.68-14.37,15.35-27.91,26.49-39.25,5.75-5.85,16.22-17.22,25.23-11.61,5.91,3.69,6.12,12.25,6.18,18.43.23,24.34-6.41,53.66,22.29,64.23,15.26,5.61,33.16,5.12,49.13,6.27q32.46,2.34,65,3.48a1779.85,1779.85,0,0,0,292.24-14l-2.5-2.5L958,1798.45a2.52,2.52,0,0,0,2.5,2.5c76.84-9.84,153.2,15.89,212.28,65.11,1.28,1.07,3.84.93,4.17-1.1q7.38-45,14.75-90l-4.18,1.11c22.35,17.74,24.46,50.63,17.65,76.38-8.35,31.55-32.46,54.45-65.82,56.91-18.26,1.35-36.6-3.18-53.14-10.71-14.26-6.5-28.89-20.94-45.53-19.41-24.57,2.27-30.72,35.35-33.13,54.65-2.13,17.06-1.68,34.1-6.37,50.81-4,14.11-12.18,34.2-30,32.1-1.78-.21-3.25,2.33-2.15,3.76,18.2,23.79,45.87,38.32,76.09,37.7s57.56-16.24,75.05-40.7l-4.57-1.92a504.45,504.45,0,0,0-11.21,138.51,2.55,2.55,0,0,0,1.83,2.41c81.16,20.53,163.93,41.55,248.31,39.12s167.24-28.29,248.68-48.36L1745,2112.36l-3.17-2.41-16.5,358.75-4.7,102.25c-.15,3.22,4.85,3.21,5,0Z"/><path class="cls-1" d="M2450.27-598.48l-27.49,7.84a2.53,2.53,0,0,0-1.1,4.18c11,11.85,13.93,28.42,12.84,44.08a2.52,2.52,0,0,0,3.76,2.16c6-3.89,17-8.91,24.2-4.33,7.65,4.89,2.91,16.49.92,22.69-1.23,3.86-4.16,16.6-8.29,18.68-3.93,2-10.53-1.82-14.62-2.53-18.56-3.24-36.26,2.5-51.4,13.13l3.68,1.5L2380-548.92c-.57-2.58-4.05-2.16-4.82,0-9.34,26.13-35.83,53.92-64.88,36a2.52,2.52,0,0,0-3.76,2.16l-7.89,92.32a2.42,2.42,0,0,0,1.24,2.16c25.7,12.25,45.37-14.33,50.92-36.55a2.54,2.54,0,0,0-3.08-3.08l-89.3,14.33,3.08,3.08A167.17,167.17,0,0,0,2268.8-507a2.54,2.54,0,0,0-3.16-2.41l-55.59,15a2.53,2.53,0,0,0-1.74,3.08,194.58,194.58,0,0,1,5.13,94.28l4.91.66c-1.52-19.45-21.16-47.9-43.09-31.52-14.18,10.59-6.33,20.28-2.88,34.59a213.85,213.85,0,0,1,3.53,79.27c-.2,1.5.61,3.26,2.41,3.16,50.17-2.73,99.5,5.22,146.62,22.51l-1.49-3.67c-16.6,26.84-22.33,58.89-20.49,90.1.14,2.36,3.4,3.55,4.66,1.27,7.13-12.94,1.18-26.14-10.19-34.46-16.38-12-38-5.69-56.73-4.11L2067.61-224.7l1.76,4.27c12-11.32,24.5.87,30.74,11.92,7.18,12.72,9.16,27.16,8.09,41.56-1,13.68-4.64,27-9.56,39.76-2.48,6.45-5.31,12.75-8.3,19-4.15,8.63-6.21,13.06-15.94,15.58-28.42,7.37-58.4,11-87.26,16.43q-43.64,8.24-87.26,16.52L1860-52.08l-22.44,4.27c-3,.57-17.66,5.3-20,2.77-2.6-2.74-.12-17.22.42-20.3a113.78,113.78,0,0,1,3.32-13.51c3.24-10.77,7.58-21.15,11.15-31.81,4.76-14.23,9-30.44,2.87-45-6.37-15.18-20-18.13-34.65-13.18-11.79,4-22.47,10.82-34.11,15.29a186.82,186.82,0,0,1-46.45,11.41c-30.69,3.35-61.11-1.61-89.71-13a2.51,2.51,0,0,0-3.16,2.41c3.34,49.49,6,104.45-15.1,150.7-8,17.6-22,34.13-41.85,38.09-22.71,4.53-38.7-11.46-45.56-31.63A2.55,2.55,0,0,0,1521,3c-31.09,15.89-51.53,46.94-64.25,78.53-17.31,43-19.67,88.8-14.91,134.47,5.09,48.68,16.45,96.92,13.89,146.13-2,38.83-11.46,96.36-57,106.17-25,5.39-52.87,3.57-78.39,4.61l-81.77,3.36c-23.23.95-49.78,2.56-59.17-23.73-5.69-15.94-4.92-35.17.61-51.05,6.17-17.71,22.51-31.49,38.57-14.52,14.37,15.18,19.05,41,12.94,60.6-14.34,45.92-66.34,33.17-102.5,31.13-115.06-6.48-230,14.2-336.86,56.75a2.58,2.58,0,0,0-1.83,2.41l4.17,190,3.17-2.41A312.75,312.75,0,0,0,653.45,714l3.16,2.41c2.38-29.29,4.3-59.28-.71-88.41C652.12,606,643,580.48,622,569.24c-17.83-9.58-38.28-3.28-55.55,4.37-23.79,10.54-46.44,27.27-72.42,31.95-27.06,4.87-52-12.69-66.81-34-17.47-25.11-24.94-59.1-18.12-89.07,5.06-22.23,19.48-48.3,42.59-55.9,30.5-10,60.86,38.16,32.9,57.73-7.4,5.18-17.74,6.7-26.27,8.94q-14.46,3.8-29,7.22-31.38,7.38-63.16,12.92a1102.27,1102.27,0,0,1-131.29,14.74l2.16,3.76c39-81.83,41.24-176.88,39.23-265.83-2.44-107.41-9.65-214.91-17.91-322q-7.2-93.22-16.63-186.26c-.26-2.63-4.19-3.61-4.91-.67-8.73,36-27.5,71.68-59.51,92.08-28,17.83-61.37,18.33-88-2.27-1.67-1.3-5.26-.19-4.18,2.43,21.52,52,30.5,108.64,29.36,164.72a415.33,415.33,0,0,1-10.19,84.53c-6.26,27.25-16.39,53.86-18,82-1.19,20.65,2.81,46.39,20,60.33,11.55,9.4,24.89,5.12,31.5-7.65,14.88-28.76-.75-76-34.76-81.33-11.92-1.88-24.06.84-35.56,3.83-17.3,4.51-34.49,9.49-51.73,14.25l-105.56,29.1c-3.09.85-1.78,5.67,1.33,4.82Q-13,183.15,62.6,162.32c23-6.3,51.2-12,66,12.21,8.78,14.35,12.12,35.88,6.59,51.95-4.54,13.18-16.87,19.75-27.93,8.67-8.49-8.51-13.19-20.94-15.16-32.63C87.63,176.23,96,149,102.9,123.9c11.84-43,17.75-86.86,16.49-131.54-1.4-49.31-10.54-98.64-29.46-144.3l-4.17,2.43c26.58,20.55,59.85,22.42,89.11,6,36-20.16,57.31-59.1,66.77-98l-4.91-.66Q252.89-82.38,262.53,78c5.94,99.24,14.29,200.21,6.41,299.55-4.12,52-13.6,104.44-36.22,151.86-.76,1.59.12,3.87,2.16,3.76A1114.38,1114.38,0,0,0,360.2,519.49Q392,514.17,423.39,507c18.95-4.31,40.46-7.51,58.29-15.45,24.27-10.82,21.54-40.12,6.71-58.21-11.94-14.56-30.14-16.82-46.29-7.85-49.57,27.55-48.63,101.81-22,144.35C432.91,590.19,453.3,608,477.91,611c25.33,3.09,49.85-12.25,71.42-23.39,14.82-7.67,30.57-16.3,47.46-18,19.69-2,34.81,9.83,43.75,26.68,18.88,35.55,14.2,81.54,11.07,120.17-.14,1.78,1.71,2.63,3.17,2.41,47.73-7.4,95.6-3.2,141.57,11.5a2.52,2.52,0,0,0,3.16-2.41l-2.3-105-1.05-47.51-.49-22.5c-.11-4.86-1.72-10.6,2.4-14.41,2.35-2.17,10.7-4.15,13.71-5.27a792.53,792.53,0,0,1,194.75-46.46,764.18,764.18,0,0,1,94.22-4.09c27.25.51,55,5.73,82.14,4.43,16.68-.79,33.06-5.94,43.8-19.41,12.9-16.19,15-38.63,9.46-58.07-4.1-14.36-14.12-33.58-30.79-35.78-13.72-1.81-23.29,10-28.2,21.33-13.21,30.38-8.86,80.71,31,86.24,13.14,1.82,27.11,0,40.29-.51l52-2.13c30.81-1.27,62.91-.09,93.44-4.56,48.24-7.06,62-58.58,65.89-100.29,6.64-70.17-17.49-138.46-15.3-208.49,1.79-57.43,24-130,79-158.07l-3.68-1.49c5.94,17.44,17.75,33.24,37.2,35.75,19,2.45,37-8.39,48.45-22.8C1621.32-1,1627.64-28.35,1631-52.93c4.55-33,3.39-66.55,1.15-99.71l-3.17,2.41c27.59,10.95,57,16.13,86.71,13.56,30.11-2.6,54.67-14.21,82-25.62,6.55-2.74,13.51-5.12,20.56-3.14,9.9,2.77,14.18,13,14.93,22.64.94,12.19-3.34,24.44-7.36,35.75-7.64,21.5-17.42,43.36-12.47,66.6a2.56,2.56,0,0,0,3.08,1.74q69.78-13.33,139.6-26.56l69.81-13.18L2060.77-85c7.13-1.34,20.48-1.27,26.23-5.58,5.34-4,9.42-18.66,12.1-24.76a195.25,195.25,0,0,0,9.21-24.91c4.83-16.82,7.29-35.36,3.19-52.59-4.4-18.48-24.38-51.25-45.66-31.12-1.5,1.41-.42,4.45,1.77,4.26L2200-230.86l66.19-5.58c9.29-.78,17.25-1.47,25.6,3.44,10.38,6.11,18,18,11.54,29.75L2308-202c-1.79-30.38,3.64-61.43,19.81-87.58a2.53,2.53,0,0,0-1.5-3.67c-47.52-17.44-97.36-25.44-147.95-22.69l2.41,3.17c3.95-28.74,2.84-58.06-4.6-86.17-1.72-6.49-5.74-13.47-2.67-19.81,2.69-5.53,9.89-8.92,15.8-8.57,15.48.93,23,17.51,24.09,30.88.2,2.62,4.35,3.63,4.91.67a204,204,0,0,0,1.32-69.71c-.9-5.73-2-11.41-3.5-17-2.27-8.84,1.12-8.71,9.2-10.89L2267-504.64,2263.8-507a163.85,163.85,0,0,1-7.09,67.25c-.66,2,1.33,3.36,3.07,3.08l89.3-14.33-3.07-3.08c-2.71,10.83-7.41,21.5-16.08,28.91-4.39,3.75-10,6.72-15.81,7.18-9.07.72-10.1-4.45-9.41-12.52l6.85-80.17-3.76,2.16c32,19.7,61.78-9.83,72.22-39h-4.82L2388-489.75a2.51,2.51,0,0,0,3.67,1.49c19.3-13.56,40.86-17.08,62.85-7.89a2.51,2.51,0,0,0,2.82-1.15c9-14.1,13.55-29.6,15.62-46.11a2.44,2.44,0,0,0-1.24-2.16c-12.18-7-24.14-6.55-35.91,1l3.76,2.16c1.19-17.07-2.39-34.77-14.3-47.62l-1.11,4.18,27.49-7.83c3.09-.89,1.77-5.71-1.33-4.83Z"/><path class="cls-1" d="M3291.25,1671l-16.5-358.75L3270,1210l-3.16,2.41c84.14,20.74,168.15,42.18,252.49,62.1,39.83,9.41,80.14,17.65,121.06,20.39,41.87,2.8,83.87-.64,125.23-7.28,47.22-7.59,93.64-19.31,140-31a2.58,2.58,0,0,0,1.84-2.42,504.83,504.83,0,0,0-11.21-138.51l-4.57,1.92c17.48,24.46,44.72,40.08,75,40.7s57.89-13.91,76.1-37.69c1.1-1.44-.38-4-2.16-3.77-15.71,1.85-24-13.77-28.31-26.52-5.09-14.93-5.85-30.12-7-45.68-1.55-20.46-4.76-53.81-26.68-63.39-14.82-6.47-28.57,4-40.87,11.12-15.91,9.23-33.84,15.74-52.28,17-34.07,2.4-64-15.63-75.94-47.72-10.21-27.47-10.18-65.8,14.73-85.57L3820.1,875q7.38,45,14.75,90c.33,2,2.9,2.17,4.18,1.1,59.08-49.22,135.43-75,212.27-65.11a2.53,2.53,0,0,0,2.5-2.5l-1.7-154.24-2.5,2.5a1781.4,1781.4,0,0,0,259.73,14.83c42.84-.71,86-2.28,128.66-6.85,12.06-1.29,25.26-4.23,33.38-14,8-9.62,8.07-22.88,7.63-34.73-.36-9.61-5-31.65,5.43-37.64,14.27-8.2,34.72,21.69,41.11,31.55,18.41,28.43,26.85,62.67,29.83,96.09,3.33,37.34-2.54,73.31-6.19,110.34-3.17,32.21-3.74,69.61,19,95.35,8.65,9.78,20.53,17.93,33.74,19.58a32.76,32.76,0,0,0,16.93-2.18c4.23-1.79,11.7-6.08,13.49-10.6,1.18-3,.26-6.94.34-10.12.14-5.89.57-11.78,1.29-17.62a180.18,180.18,0,0,1,6.55-30.73,160,160,0,0,1,31.15-57.56l-3,.39c26.4,11.34,24.93,50.95,23.69,74.74-1.74,33.29-5.12,66.06,1.27,99.14,5.47,28.36,17.93,56.9,43.34,72.63,19.16,11.86,44.55,14.86,63.19.34,2.62-2,6.25-4.74,7.88-7.68,1.78-3.2,1.76-7.55,2.38-11.18l5.78-33.58q6.06-35.25,12.14-70.51l-3.08,1.74,91.46,21a2.54,2.54,0,0,0,3.17-2.41l5.94-158.42,2.94-78.34c.47-12.59-.16-25.81,1.44-38.3,1-7.73,6.74-9.29,13.1-13l16.88-9.8-3-.39c15.66,13.57,34,22.26,54.67,24.47,3.2.34,3.18-4.66,0-5-19.24-2.06-36.57-10.39-51.13-23a2.59,2.59,0,0,0-3-.4l-16.89,9.81c-3.72,2.16-11.94,5.21-14.58,8.56-2.12,2.69-1,9-1.12,12.21l-.79,20.89L4921.16,870l-6.27,167.13,3.16-2.41-91.46-21a2.53,2.53,0,0,0-3.08,1.75q-4.91,28.53-9.82,57.08l-4.62,26.86-2.32,13.44c-.9,5.24-.88,12.82-3.73,17.42-6.46,10.39-22.59,14.72-33.92,14.36-13.4-.42-26.28-6.26-36.66-14.53-25.27-20.15-34.14-54.54-36.85-85.38-2.73-31.05,2.38-61.55,2.14-92.53-.17-22.28-2.95-53.47-26.54-63.6a2.57,2.57,0,0,0-3,.39c-22.1,25.77-35.1,58.24-39.16,91.82-.48,3.89-.83,7.81-1.05,11.73-.22,3.77.93,11.24-.89,14.62-3.15,5.82-12.66,9-18.74,9.41-13.84.92-26.89-7.72-35.84-17.53-27-29.57-20.59-75.8-16-112.15,4.36-34.86,7.16-69.17,2.45-104.18-4.12-30.57-13-61.45-30.35-87.27-8-12-39.61-51.76-52.61-24.44-11,23.1,11.79,59.32-17.85,73.79-16.49,8-38.52,6.69-56.37,7.93q-31.6,2.18-63.28,3.23a1780.67,1780.67,0,0,1-288.82-14.11,2.53,2.53,0,0,0-2.5,2.5l1.7,154.24,2.5-2.5c-78.18-10-155.76,16.55-215.81,66.58l4.18,1.1q-7.36-45-14.75-90c-.33-2.06-2.88-2.13-4.18-1.1-20.82,16.53-25.06,45.83-21.14,70.68,4.54,28.76,20.55,54.51,48.29,65.62,33.32,13.34,69.45,1.74,98.65-16,8.6-5.22,18.78-11.41,29.16-7.51,7.7,2.9,12.56,10.25,15.78,17.45,6.94,15.49,8.41,33.15,9.32,49.87,1.2,22.1,7.54,72.9,39.86,69.11l-2.16-3.76c-36.44,47.63-107.86,45.44-142.51-3a2.51,2.51,0,0,0-4.57,1.93,499.46,499.46,0,0,1,11,137.18l1.83-2.41c-81.29,20.56-164.14,41.64-248.66,38.88-83.91-2.73-166.36-28.58-247.36-48.54l-140.06-34.52A2.53,2.53,0,0,0,3265,1210l16.5,358.75,4.71,102.25c.15,3.21,5.15,3.23,5,0Z"/></g></svg>