<svg xmlns="http://www.w3.org/2000/svg" viewBox="0 0 2487.39 2534.44"><defs><style>.cls-1{fill:#f190a3;}.cls-1,.cls-2,.cls-3{isolation:isolate;}.cls-2{fill:#f6ae8b;}.cls-3{fill:#ffda63;}.cls-4{fill:#df8c36;}.cls-5{fill:#2c1d0d;}.cls-6{fill:#b28364;}.cls-7{fill:#e4ac7d;}.cls-8{fill:#9b811e;}.cls-9{fill:#dab22a;}.cls-10{fill:#c2ab94;}.cls-11{fill:#453127;}.cls-12{fill:#4e3e2b;}.cls-13{fill:#b68667;}.cls-14{fill:#3a2a26;}.cls-15{fill:#463025;}.cls-16{fill:#9e969e;}.cls-17{fill:#c57769;}.cls-18{fill:#84473b;}.cls-19{fill:#e9baaa;}.cls-20{fill:#fff;}.cls-21{fill:#472d17;}</style></defs><g id="v"><path class="cls-1" d="M2396.7,1090.57c48.25,202.23-52.64,383.71-102.23,474.18-454.25,828.88-372.45,914-579.31,1031.75-431.68,245.77-1033.38,99.16-1066.53-67C619.85,2385.26,1029.56,2272,1624.5,1678.8c104.86-104.57,186.45-195.09,239-255.22a663.44,663.44,0,0,0,71.91-129.28c16.4-39.3,35.95-91.69,38.52-159.76,0-.33-.34-19.21-.34-19.21h0s-39.77-74.74-81.82-127c-14.65-18.22-44.3-52-105-94.76-147.42-103.86-576-329.49-799.37-472.46C881.79,353.44,603.58,164.65,344.23-157.56c-43.72-54.32-77.91-101.2-101-134,107.52,7.67,191.85-4.57,250.38-17.86,110.15-25,185.13-66.47,272.35-31.26,27.94,11.28,46.08,26,74.68,49.12C909.38-235.84,950.52-173,969.05-141.39c3.76,6.42,6.62,11.59,8.28,14.63.8,1.45,1.37,2.51,1.39,2.55,180.45,332.67,761.15,649.3,761.15,649.3,285.31,155.57,455,208.67,583.11,402C2363.23,987.78,2384.68,1040.17,2396.7,1090.57Z"/><path class="cls-2" d="M2151.83,1131.85c9.47,135.66-94.86,223.92-327.92,451.65-324.82,317.39-619.91,664.1-941.34,984.92h0s-95.22,35.08-103,37C625,2643.6,412.93,2638.31,386,2562.28c-42.9-121.19,424-311,1026.39-891.14,102.8-99,183.21-184,234.47-239.64a615.94,615.94,0,0,0,70.56-121.39c9.88-22.65,37.9-88,37.79-150-.12-67.37-33.5-118.36-50.12-143.74C1559.85,794.47,711.3,260.83,283.58-68.68c-64.45-49.65-114.1-90.63-134.79-107.83A195.27,195.27,0,0,0,198-179.94c44-8.81,72.42-30.81,85.58-39.7C360-271.25,486.5-262.35,570-225c30.87,13.79,51.6,29.33,73.27,46.12,67.48,52.28,107.84,111.24,126,141,3.69,6,6.51,10.9,8.14,13.75l1.35,2.38C791-.34,827.05,8.37,827.05,8.37c101.5,24.36,934.46,715.94,934.46,715.94C2094.71,1001,2145.59,1042.46,2151.83,1131.85Z"/><path class="cls-3" d="M1761.46,1180.3c2,140.39-91.4,246.45-168.31,330.15-251.12,273.27-473.37,445.28-696.26,651.76-219,202.87-297.57,308.91-414.58,367.36-23.29,11.63-58.32,25.42-103,37-286.43,74.21-668.68-83.82-671.08-208.07-4.7-244.56,1459.17-494.94,1707.66-928.59,89.58-156.34,76.8-302.4,76.8-302.4-9.19-105-55.67-189.48-115.2-268.79C1315,775.41,914,241.17,523.92,319.33,165.45,391.15,83.1,927.27-65.17,902-149,887.64-246.81,699.16-251.46-215.36a195.17,195.17,0,0,0,49.2-3.43c44-8.82,72.43-30.81,85.58-39.7,76.39-51.62,202.93-42.71,286.44-5.41,30.88,13.79,51.6,29.33,73.27,46.12,67.48,52.28,107.84,111.24,126,141,3.69,6,6.51,10.9,8.13,13.75.78,1.36,1.35,2.37,1.35,2.38,1,1.69,961.32,584.7,1283.61,997.77C1703.85,990.53,1760,1073.31,1761.46,1180.3Z"/></g><g id="hoved"><path class="cls-4" d="M1058.5,1435.09h45.3c3.21,0,3.22-5,0-5h-45.3c-3.22,0-3.22,5,0,5Z"/><path class="cls-5" d="M1337.24,1063.05a166.44,166.44,0,0,0-13.6-28.09c-25.36-36.26-68.77-41.65-127.77-127.58-25.76-37.51-105.65-153.86-93.93-292.87,5.53-65.61,28.35-99.28,8-156.17-15.44-43.12-36.35-45.59-76.73-98.77C957.5,259.89,986.32,205,923.62,157.05c-64-49-155.46-51.8-166-29.88-11.3,23.48,81.35,52.25,124.12,147.36C930,381.87,857.94,447.41,890.42,582c7,29,16,49.47,26.05,65.72,42.07,68,70.79,102.53,86.83,126.85,66.36,100.56-113.52,242.67-104,441.4,6.31,132.4,96.07,277.55,187.67,286C1241.77,1516.18,1364.27,1136.19,1337.24,1063.05Z"/><path class="cls-6" d="M1384.44,1321c-1.74-4.12,1.13-9.24,2.13-11,1.86-3.31,4.1-5,11-9.94,8.16-5.79,12.25-8.68,13.86-9.59a75.13,75.13,0,0,1,20.24-8.53,67.86,67.86,0,0,1,21.32-1.78c14.56,1.23,20.75,6.92,25.22,3.2a8.81,8.81,0,0,0,2.14-9.59c-.35-.8-1.83-3.76-10.66-5.69-10.23-2.23-19-.61-27.71,1.07a145,145,0,0,0-14.21,3.55c-6.64,1.95-11,3.22-15.28,5.33-6.29,3.07-10.23,7-18.12,14.92s-13.14,14.71-17.05,22.74c-3.1,6.37-3,8.55-2.13,9.95,2.29,3.78,9.37,1,17.69,3.45,9.11,2.71,11.29,9.26,17.57,14.48,13.56,11.25,40.84,11.88,56.87-1.55,15.35-12.87,17.54-36.23,14.48-37.74-1.69-.84-4.48,5.15-14,13.44-7.37,6.44-17.24,15.06-30.5,17.06-8.31,1.25-5.86-1.92-34.12-6.72C1393.08,1326.29,1386.4,1325.62,1384.44,1321Z"/><path class="cls-7" d="M1075.61,1241.14c-1.31,7,1.64,10.27,2.63,19.5.15,1.48,1.84,17.24-2.63,19.12-6.57,2.76-18.5-28-30.9-26.07-9.86,1.51-17.37,22.14-16.42,39.59,1,19.11,11.4,19.49,14.48,43.46,1.76,13.63-.71,20.42,4.83,32.83,2.54,5.68,6.48,14.19,14.49,16.41,2.92.82,11.52,2.22,18.14-2.11,1.57-1,2.64-2.12,4-1.81,2.92.65,3.55,6.68,5,13.14s4.22,12.52,6.09,18.85c3.62,12.33,17.7,44.82,39.78,79a427.36,427.36,0,0,0,45.31,58.31c19.64,21.17,35.44,33.86,58.31,52.24,29.1,23.38,40.62,29.08,51.07,32.83,21,7.53,36.73,6.84,42.8,6.34s14.23-1.24,23.78-5.28c6.28-2.66,16.38-8.11,34.88-30.65,9.59-11.68,15.7-21,22.72-31.7,21.44-32.8,32.16-49.2,32.76-50.2,7.72-13,19.52-40,42.8-93.52,15-34.38,22.13-51.32,24.83-74a150.14,150.14,0,0,0,.53-37.52,269.47,269.47,0,0,0-5.81-31.17c-1.55-6.26-3.74-14.17-4.8-23.3-.52-4.43-.51-8.57-.49-16.86a19.87,19.87,0,0,1,.29-3.55c.78-4.26,2.7-5.9,3.93-8.83,1-2.46.81-5.3.39-11-.41-5.43-.66-8.82-2.79-12.4-1.25-2.12-2.57-3.29-5.2-5.6-7.39-6.46-11.09-9.69-13-11.12-5.9-4.49-11.53-9.32-17.44-13.8-7.79-5.91-22.38-18.1-67.43-60.68-17.56-16.58-20.45-19.56-48.82-46.52-6-3.87-14.76-9.35-25.62-15.56s-16.4-9.39-19.13-9.91c-15.62-3-32.72,5.76-46,12.53l-1.37.71c-8.65,4.48-22.51,14.22-49.87,33.52-32.24,22.73-48.36,34.1-54.37,39.24-42.25,36.14-48.44,59.49-76,94A25.42,25.42,0,0,0,1075.61,1241.14Z"/><path class="cls-8" d="M1068.86,1384.88c2-.26,8,19.07,6.9,41.18,0,0-1.36,26.59-15.92,45.19-5.33,6.8-8.78,6.42-9.55,6.29-1.84-.3-3.93-1.72-4.27-3.61-.7-3.9,6.28-8.31,8-9.55C1072.33,1451.17,1065.2,1385.35,1068.86,1384.88Z"/><path class="cls-9" d="M1065.73,1366.65c-1-.37-2.68,3.5-13.51,25-4.59,9.12-5.91,11.64-7.81,16.47a147.14,147.14,0,0,0-5.8,18.55,162.14,162.14,0,0,0-3.81,22.14c.21,6,.43,10.84.57,13.93a21.46,21.46,0,0,0,.67,4.72,20.66,20.66,0,0,0,1.12,3.24c1.19,2.56,4.65,7.18,8.81,6.9,3.38-.22,6.1-3.59,6.69-4.43v0s.93-17.87,2.27-30.89c2-19.11,4.21-21.9,8.67-52C1065.89,1374.8,1067,1367.1,1065.73,1366.65Z"/><path class="cls-10" d="M1380.37,1309.94a36.41,36.41,0,0,1,4.15-9.49c1-1.51,3.53-5.39,12.45-12.45,5.2-4.11,8.55-6.76,13.64-9.48,8.58-4.6,16-6.12,22.53-7.41,9.41-1.86,15.56-1.73,26.38-1.49a39.06,39.06,0,0,1,15.41,4.45c.52.27,2.49,1.31,2.37,2.37-.16,1.39-3.67,1.22-4.71,3.39-.71,1.48.29,2.93.86,4.91,1,3.63,0,6.83-1.19,10.38-2.47,7.48-10.34,11.86-13.63,13.63-2.09,1.13-21.39,11.17-41.5,4.15-7-2.44-13.48-6.73-23.71-5.63a32.5,32.5,0,0,0-6.82,1.48"/><path class="cls-11" d="M1426.86,1315.67c-.12.48,1.3.7,2.13,1.9,2.38,3.38-2.6,10.79-2.37,10.91s5.08-10.72,8.53-10.15c1.54.26,2.38,2.75,2.9,4,1.55,3.79.32,7.45.49,7.48s1.17-2.59,1-6.15c-.2-4.17-1.89-6.33-1-7.14s3.83.84,4.65,1.33a19.62,19.62,0,0,1,7.81,9.8c.77,2,1,3.52,1.16,3.48s.25-3.45-1-6.81c-1.87-5-5.53-7.17-5-8s3.86.47,6.81,2.16a28.77,28.77,0,0,1,8.81,7.81c-.08.07-10.76-11.48-10.3-12,.29-.3,5.11,3.8,6.31,4.82,3.13,2.66,4.7,4.26,4.82,4.15.29-.28-8.84-10.28-8.64-10.47a7.39,7.39,0,0,1,1.08.94c2.79,2.5,4.73,3.08,6.39,4.21,4,2.74,4.91,7.68,5,7.64a24.12,24.12,0,0,0-4.32-8.13c-3.35-4.32-6.17-5.36-5.82-6.15.59-1.31,9.38-.59,13,4.65,2.09,3.06,1.84,6.83,2,6.81a12.55,12.55,0,0,0-1-6.64c-2.58-6.1-8.84-7.57-8.47-8.47.5-1.23,12.46.43,15.77,7.14.53,1.05,1,2.5,1,2.49a13.26,13.26,0,0,0-3-7c-3.83-4.23-10.17-3.12-10.3-4.65-.08-1.06,2.91-2.88,6.15-2.82,6.48.13,11.81,7.78,12.29,7.31.06-.06,0-.21,0-.25a12.16,12.16,0,0,0-4.64-5.23c-4.72-2.75-8.37-3-8.31-3.66,0-.49,2.3-1.07,4.65-.66,5.71,1,8.83,7.2,9.14,7s-1-4-4.48-6.14-6.73-1.29-7.31-3c-.38-1.1.55-2.78,1.82-3.49,4.54-2.53,14.3,6.79,14.29,6.81A42.78,42.78,0,0,0,1479,1295c-2.66-1.33-4.71-2.08-4.59-2.72s2.75-1,5-.66c6.25.89,9.94,6.65,10.13,6.47s-2.64-4-7.31-7.14a19.37,19.37,0,0,0-5.14-2.32c-1.68-.49-3.27-.94-4.16-.17s-.57,2.46-.49,3.32c.38,4.28-4,8.28-8.48,12.29a51,51,0,0,1-17.28,9.34c-2.13.67-4.16,1.07-4.16,1.07a41.89,41.89,0,0,1-6.4.71C1430.17,1315.48,1427,1315,1426.86,1315.67Z"/><path class="cls-12" d="M1393,1293.52c-.24,3,1.73,5.42,3.37,7.41a24.24,24.24,0,0,0,19.32,8.54,24.54,24.54,0,0,0,13.7-5c2.4-1.8,6.67-5,8.08-11a18.4,18.4,0,0,0-2.47-13.7,9.24,9.24,0,0,0-2.47-2.92c-2.21-1.63-5.18-2-10.78-.9a54.5,54.5,0,0,0-19.09,7.64C1396.82,1287.37,1393.28,1289.72,1393,1293.52Z"/><path class="cls-13" d="M1467.06,1288.51c1-1,3.31-.12,3.48,0a4,4,0,0,1,2.14,1.7c.57,1,.39,2.07.11,3.78-.18,1.14-.53,2-.6,2.42-.41,2.4-3.85,8.16-10.27,12.38-5.61,3.69-10.91,4.53-17.21,5.43-7.53,1.08-19.23,2.77-31.55-1.24a90.05,90.05,0,0,0-15.94-3.77,35,35,0,0,0-7.09-.22c-4.07.31-6.81,1.29-6.86,1.11s3-1.59,6.81-2.24a45,45,0,0,1,4.73-.66c5.87-.38,12.31,1.73,16.16,2.66,5.82,1.41,11.19.94,22,.32,5.72-.33,9.65-.59,14.81-2.18a46.7,46.7,0,0,0,13-6.78c5-3.24,6.14-6,6.22-7.88S1466,1289.45,1467.06,1288.51Z"/><path class="cls-6" d="M1375.39,1309.63a9.52,9.52,0,0,0,2.59-.9,11.81,11.81,0,0,0,4.58-4.66c1.93-3.23,4.3-6.18,6.48-9.24,3.6-5,9-8.73,15.14-12.87,7.8-5.28,12.25-8.3,19.12-10.37a55.4,55.4,0,0,1,21.31-1.77c14.56,1.23,20.75,6.92,25.23,3.2a8.8,8.8,0,0,0,2.13-9.6c-.35-.79-1.83-3.75-10.66-5.68-10.22-2.23-19-.62-27.71,1.06a145.31,145.31,0,0,0-14.21,3.56c-6.63,2-10.94,3.21-15.28,5.33-6.78,3.3-10.82,7.5-18.11,14.92l-.08.08s-6.85,7-12.17,13.79c-13.36,17.16-6.22,66.46-6.22,66.46q5.46,33.93,6.62,33.79t-2.25-36.85C1371.09,1321,1373,1310.2,1375.39,1309.63Z"/><path class="cls-14" d="M1402,1289.13c-.18,2.9,2,5.06,2.49,5.61a10.3,10.3,0,0,0,11.34,2.14c4.69-2.13,5.45-7.09,5.53-7.75s.75-5.52-2.48-7.74c-2.38-1.63-5.39-.82-7.47-.27C1410.55,1281.34,1402.3,1283.65,1402,1289.13Z"/><path class="cls-15" d="M1391.66,1292.47c.78.91,8.4-6.91,23.83-13,4.12-1.62,16.42-5.52,23.29-3.61,3,.84,4,1.81,8.23,2.64,6.19,1.22,7.28-.22,14.76.52a94.63,94.63,0,0,1,13.15,2.46c2.13,2.18,2.39,2.37,2.39,2.37,1.21.9,2.56,1,5.22,1.05,3.24.1,4.85.15,6.44-.61a15.93,15.93,0,0,0,4.42-3.61l-.42-2.48c0-.49,0-.7-.12-.74-.27-.11-.66.91-1.7,1.56a3.88,3.88,0,0,1-1.44.52,15.39,15.39,0,0,1-6.26,0c-3.82-.93-6.24-3.49-8.49-5.09-2-1.42-4.54-2.57-14.63-3.52-16.15-1.53-20.28-2.84-35.25.39-6.2,1.33-13.21,2.91-20.78,8C1396.39,1284.61,1391,1291.65,1391.66,1292.47Z"/><path class="cls-11" d="M1390.49,1251.81c-.79,3.19-1.35,5.44-.35,6.73,2.12,2.77,10.31-.23,16.87-2.7,22.32-8.43,35.31-13.33,51.56-21.66,4-2,6.52-3.24,11.64-5.68,7.7-3.66,9.1-4.14,10.09-4.46a57.86,57.86,0,0,1,14.25-2.41c5.42-.27,8.2.3,11.1-1.87.64-.48,2.83-2.11,2.9-4.41,0-1.55-.9-2.7-5.8-7-5.26-4.61-5.43-4.39-9.17-7.72-3.18-2.83-3.52-3.4-5.07-4.11-.84-.38-3.69-1.56-8.93-.72-4.74.76-7.88,2.6-12.56,5.31-4.33,2.51-8.82,4.77-13,7.48-12.88,8.28-34.64,18.85-46.36,23.66-1.84.76-7.49,2.81-11.58,8.21a23.61,23.61,0,0,0-1.67,2.55A28.39,28.39,0,0,0,1390.49,1251.81Z"/><path class="cls-11" d="M1291.9,1257.46c3.18-4,.54-12.6-4.21-17.45-2.77-2.82-5.75-3.85-10.83-5.41-16.92-5.18-28.82-7.61-28.82-7.61-12.17-2.49-18.26-3.73-23.15-4.51-14.17-2.27-25.12-3.12-28.71-3.38-17.9-1.28-26.84-2-36.3-.42a96.24,96.24,0,0,0-34.21,13c-9.63,5.93-20.94,15.28-19.5,17.93,1.32,2.45,12-3.66,32.29-6,8.52-1,15.93-.73,30.74-.23,7.76.26,20,.7,35.85,2.73,15,1.93,28.13,4.59,34.5,5.93,4.66,1,16.71,3.5,32.49,6C1284.59,1260.07,1289.52,1260.48,1291.9,1257.46Z"/><path class="cls-10" d="M1249.65,1317.6c12.08-4.64,12.74-6.51,12.87-7.38.59-4.13-7.65-8.45-14-11.74a81.57,81.57,0,0,0-57-8.47,97.75,97.75,0,0,0-19.27,6.64c-7.64,3.32-4.38,2.85-12.1,6.4-2.2,1-4.61,2-4.51,3.2.07.85,1.43,1.2,4,2.22a61.82,61.82,0,0,1,9.74,5.06c.73.49,1.38,1,2,1.45a27.32,27.32,0,0,1,3.29,3.2c1.67,1.9,14,9.81,33.9,9.26,9.74-.27,17.43-2.44,24.19-4.35A152.78,152.78,0,0,0,1249.65,1317.6Z"/><path class="cls-12" d="M1187.63,1298c-3.56,7.09,3.21,16.36,4.26,17.74a21.26,21.26,0,0,0,13.13,8.52,21,21,0,0,0,16-3.91,20.49,20.49,0,0,0,8.17-17.74,13.15,13.15,0,0,0-2.84-7.8c-3.76-4.32-10-4.16-16.33-3.91C1200.08,1291.34,1190.81,1291.71,1187.63,1298Z"/><path class="cls-13" d="M1173.77,1314.29c-.14.26,1.7,1.73,10.78,7.27,7.36,2.75,9.89,5.2,10.77,7a5.05,5.05,0,0,0,1.45,1.89c1.82,1.39,4.24.62,5.74.75a63.62,63.62,0,0,0,10.71,0,56.57,56.57,0,0,0,13.12-2.75c23.88-7.68,46-11.68,45.67-16.77,0-.49-.2-1.07-6.84-5.62-7.8-5.35-14.84-10.18-15.84-9.06-.3.34-.14,1.39,2.32,4.66q3.24,3.28,6.76,6.61c.81.76,1.62,1.52,2.43,2.26l-13.72,7.15s-3.57,1.26-9.22,3.3-5.58,2.11-7.38,2.72a54.71,54.71,0,0,1-16.56,3.39,45.71,45.71,0,0,1-12.06-1.4c-3.58-.81-5.45-1.73-18-7.25C1176,1314.93,1173.91,1314,1173.77,1314.29Z"/><path class="cls-15" d="M1254.12,1304.13c-.84.79-3.32-1.14-8.57-3.79a103.26,103.26,0,0,0-13.85-5.53c-4.46-1.4-2.77.08-15.91-1.84-3.85-.56-7.06-1.13-11.07-.2-1.34.31-1.74.55-4.6,1.25-4.06,1-4.92.92-6.68,1.88-1.57.85-1.59,1.29-3.35,2.09-1.56.71-1.81.49-4,1.25s-2.37,1.14-4.8,2.09c-1,.38-.92.28-1.28.47a6.8,6.8,0,0,0-2.61,2.86c-1.13,1.78-3.42,2-6.6,2.68-8,1.72-7.74,3.32-14.59,4.23a25,25,0,0,1-7.73-.21c-2.16-.39-3.41-.61-3.55-1.25-.29-1.24,3.78-3.06,12.12-6.9,3.54-1.62,6.15-2.83,8.13-3.76,1.3-.6,3.64-1.8,7-3.21l1-.43.79-.33c1.21-.49,11.69-5,16.67-6.82a56.43,56.43,0,0,1,14.88-3.87,42.06,42.06,0,0,1,15.64,1c5.15,1.3,11.24,2.91,18.08,4.89,5,1.44,8.56,2.54,11.54,5.82C1253.34,1299.27,1255.08,1303.22,1254.12,1304.13Z"/><path class="cls-14" d="M1199.31,1301.49c-.34,5.11,3.71,8.13,4.11,8.41a9.9,9.9,0,0,0,8.23,1.53,9.58,9.58,0,0,0,5.37-4.07,9.81,9.81,0,0,0-1.11-11.47,9.66,9.66,0,0,0-10.92-2.43A9.47,9.47,0,0,0,1199.31,1301.49Z"/><path class="cls-16" d="M1212.23,1297.25c-.15,1.53,1.71,3,3.29,2.67a2.45,2.45,0,0,0,1.84-1.85,2.57,2.57,0,0,0-1.64-2.87A2.74,2.74,0,0,0,1212.23,1297.25Z"/><path class="cls-16" d="M1206.62,1301.84a1.59,1.59,0,0,0,1.79,1.59,1.4,1.4,0,0,0,1-1.1,1.56,1.56,0,0,0-.89-1.71A1.49,1.49,0,0,0,1206.62,1301.84Z"/><path class="cls-11" d="M1245.71,1324.37c.88.7,1.46,1.73,2.62,3.8a19.35,19.35,0,0,1,2.56,6.75,23.27,23.27,0,0,0-2.27-4.2c-1.61-2.21-3.56-3.73-3.86-3.49s1.57,2.18,2,5.53c.2,1.61,0,3.16-.23,3.18s-.29-1.44-1-3.12c-1-2.29-3.1-4.72-4.26-4.36-.57.18-.85,1-1.17,4.89-.45,5.54-.38,10-.49,10s-.31-2.93-.35-3.32c-.55-5.24-.84-8-2.13-8.4-1-.33-2.32.85-3,1.64-2.54,3.14-1,8.36-1.28,8.4s-.52-7.54-4-9a2.5,2.5,0,0,0-2.45.14c-.81.71-.32,2.17.05,5,.41,3.17.41,6,.12,6s-.61-3.08-2.9-6.27c-.44-.62-2-2.8-2.86-2.48-.46.17-.54,1-.68,4.62a47.93,47.93,0,0,1-.28,4.83,26.38,26.38,0,0,0-1-6.17c-.13-.41-1.32-4.21-2.19-4.09-1.47.19-1.26,11.74-1.58,11.74s.69-8.28-2.18-9.54c-1.7-.74-4.34,1.22-5.65,2.69-1,1.09-1.39,2.23-2.2,4.45-1.4,3.87-1.62,6.32-1.83,6.29s-.5-4.73.81-10.21c.77-3.2,1.51-4.55,1.08-4.83-.77-.5-4.52,2.67-6.45,7-2.5,5.58-.88,10.73-1.08,10.75s-3.35-9.41,1.08-16.12c1.23-1.87,2.88-3.27,2.68-3.49-.44-.5-9.18,6.73-9.67,6.18s6.19-5.9,5.11-7.79c-.7-1.22-4.14-1.16-6.45.26-1.11.69-1.21,1.23-2.78,2.88-2.46,2.61-5.09,4.32-5.28,4.11-.35-.37,8-6.3,6.72-9.94-.9-2.49-6.19-3.55-9.94-2.69a13,13,0,0,0-2.7,1,19.47,19.47,0,0,0-6.17,4.64s2.37-2.4,4.42-4.64c3.22-3.54,3.45-4.16,3.37-4.76-.27-2-3.53-3.07-5.73-3.78s-3.24-.44-3.67-.25c-.72.32-.91.75-2.06,2-1.33,1.48-2.9,2.94-3,2.82s5.16-6,4-7.52-9.1,2.26-9.4,1.61,6.6-4.15,6.18-5.11a.33.33,0,0,0-.18-.15c-1.75-.71-8.68,1.77-8.69,1.77s5.55-4.71,11.56-3.23a11.77,11.77,0,0,1,5.1,3c.49.34,1.2.85,2.06,1.44a159.12,159.12,0,0,0,14.71,8.89c9.31,4.79,14.19,7.3,21,7.62,5.73.27,10.39-1.11,16.51-2.94C1236.16,1325.52,1242.24,1321.59,1245.71,1324.37Z"/><path class="cls-6" d="M1179.73,1293.38a159.27,159.27,0,0,1-14.65,8.74,93.19,93.19,0,0,1-9.38,4.37c-6.78,2.71-15.1,6-17.51,3.21-2.58-3,2.27-12.47,8.09-18.73,8-8.66,18.48-11,39.35-15.6a210.32,210.32,0,0,1,39.42-4,48.54,48.54,0,0,1,12.34,1.28,51.13,51.13,0,0,1,14,5.88c10.53,6.3,16,14.29,20.88,21.53,2.59,3.81,7.45,11,5.74,12.76-.65.68-2.22.57-6.24-1.16a58.35,58.35,0,0,1-16.08-10.32c-7.73-7.26-16.81-9.9-25.51-12.44C1212.8,1283.85,1191.33,1285.78,1179.73,1293.38Z"/><path class="cls-17" d="M1253.38,1522.92c-1.52,2,12.87,18.68,31,31.2,11.67,8.07,22.42,15.51,38.54,17.07a66.19,66.19,0,0,0,36.33-7.22c14.66-7.41,21.83-17.66,33.81-34.81,6.16-8.82,7-11.88,6-13.14-1.86-2.4-9.44,2.66-27.17,7.88-8.32,2.45-6.26,1.23-18.64,4.6-11.5,3.14-16,5-24,4.93-1.19,0,0,0-10.11-1-15.82-1.48-23.8-1.87-25.9-2-7.52-.35-6-.06-9.16-.33a92.16,92.16,0,0,1-22.75-4.59C1255.36,1523.53,1253.84,1522.31,1253.38,1522.92Z"/><path class="cls-17" d="M1248.48,1520.53c-.49,1.1,6.83,6.92,16.79,9,4.84,1,6.56.37,13.93.41,6.72,0,6.71.58,27.86,2.87,16.63,1.8,19.13,1.73,20.89,1.64,5.63-.3,10.44-1.29,20.08-3.28,9-1.86,8.54-2.11,19.25-4.51,14.74-3.3,19.41-3.67,27-7.37,1.34-.65,10.44-5.12,9.83-7-.67-2.06-12.39,2.29-31.54,1.64-5.34-.18-8.2-.64-14.75-.41-8.76.32-13.13.47-17.21,2-1.86.72-3.55,1.61-6.1,1.5-2.91-.13-4.39-.85-7.51-1.57a34.48,34.48,0,0,0-9-.62c-2.69,0-5.53.37-15.35,3.13-11.31,3.17-13,4.3-19.4,5.31a70.65,70.65,0,0,1-9.69.94C1258.55,1524.66,1249,1519.32,1248.48,1520.53Z"/><path class="cls-16" d="M1415.44,1284.22c-.15,1.53,1.71,3,3.28,2.67a2.46,2.46,0,0,0,1.85-1.85,2.59,2.59,0,0,0-1.64-2.87A2.73,2.73,0,0,0,1415.44,1284.22Z"/><path class="cls-16" d="M1408.86,1288a1.59,1.59,0,0,0,1.79,1.59,1.41,1.41,0,0,0,1-1.1,1.54,1.54,0,0,0-.89-1.71A1.48,1.48,0,0,0,1408.86,1288Z"/><path class="cls-18" d="M1247.46,1522.08c-.08.16,2.85,1.84,6,3.35a62.7,62.7,0,0,0,15.4,5.31c3.51.7,6.65.88,12.92,1.24,9.38.54,10.36.1,17.35.53s12.69,1.29,18.23,2.13c12.64,1.92,12.51,2.79,17.07,2.53s8.79-1.61,17.27-4.3c1.86-.59,5.25-1.76,12-4.07,4.73-1.62,6.33-2.18,9.14-3,1.9-.56,4.45-1.2,9.45-2.47,4.84-1.23,7.25-1.89,8-2.14,9.55-3.05,15.62-10.14,15.51-10.28a44,44,0,0,1-12.67,8.39c-2.57,1.11-6.77,2.15-15.14,4.35-4.94,1.3-7.42,1.95-10.79,3-1.91.62-3.1,1-7.29,2.42-3.32,1.1-5,1.64-6.26,2a83,83,0,0,1-15.26,3.29,68.6,68.6,0,0,1-8.82.46,76.64,76.64,0,0,1-11.93-1.29c-9.74-1.63-10.23-2.61-16.35-3.19-3.28-.31-2,.08-11.29-.1a169.28,169.28,0,0,1-17.56-1,67.55,67.55,0,0,1-8.93-1.54,78.64,78.64,0,0,1-8-2.56C1250.46,1523.31,1247.54,1521.91,1247.46,1522.08Z"/><circle class="cls-19" cx="1309.33" cy="1547.44" r="1.54"/><ellipse class="cls-19" cx="1318.38" cy="1549.77" rx="2.37" ry="1.21" transform="translate(-557.84 2336.99) rotate(-72.37)"/><ellipse class="cls-19" cx="1330.42" cy="1543.45" rx="4.91" ry="0.94" transform="translate(-323.01 2734.41) rotate(-85)"/><ellipse class="cls-19" cx="1327.11" cy="1543.36" rx="4.91" ry="1.12" transform="translate(-434.47 2563.17) rotate(-79.38)"/><ellipse class="cls-19" cx="1356.82" cy="1536.34" rx="1.8" ry="2.96" transform="translate(-688.95 1409.4) rotate(-45)"/><ellipse class="cls-19" cx="1343.35" cy="1541.8" rx="1.27" ry="2.79" transform="translate(-480.22 616.41) rotate(-22.03)"/><ellipse class="cls-19" cx="1337.85" cy="1542.48" rx="1.12" ry="2.56" transform="matrix(0.87, -0.5, 0.5, 0.87, -592, 875.58)"/><ellipse class="cls-20" cx="1323.66" cy="1543.36" rx="6.58" ry="1.04" transform="translate(-496.01 2450.46) rotate(-75.88)"/><ellipse class="cls-20" cx="1319.84" cy="1540.93" rx="4.93" ry="1.41" transform="translate(-653.35 2013.13) rotate(-62.88)"/><ellipse class="cls-19" cx="1310.98" cy="1537.23" rx="2.58" ry="1.49" transform="translate(-654.88 2003.23) rotate(-62.88)"/><path class="cls-21" d="M1065.18,894.41c27,53.17,73.73,86,73.73,86,37.65,26.49,61.46,25.15,118.68,52.44,43.8,20.9,73,42.26,101.17,62.89,110.42,80.83,123.25,138,150.78,131.26,49.4-12,83.53-214.58-8.83-333.19-35.89-46.09-58-37.29-82.68-78.65-24.39-40.88,32-228.16,30.4-323.3-3-181.34-224.4-312.25-226.86-310.06-1.4,1.23,59,53.18,91.89,149.17,15.85,46.29,28.52,83.27,15,119.45-26.53,70.95-119.11,46-199.48,120.26C1045.14,648.2,1015.19,796.13,1065.18,894.41Z"/></g></svg>